<?xml version="1.0" encoding="utf-8"?>
<!-- Generator: Adobe Illustrator 18.0.0, SVG Export Plug-In . SVG Version: 6.00 Build 0)  -->
<!DOCTYPE svg PUBLIC "-//W3C//DTD SVG 1.1//EN" "http://www.w3.org/Graphics/SVG/1.1/DTD/svg11.dtd">
<svg version="1.1" id="Layer_1" xmlns="http://www.w3.org/2000/svg" xmlns:xlink="http://www.w3.org/1999/xlink" x="0px" y="0px"
	 viewBox="0 0 1471 1467.5" enable-background="new 0 0 1471 1467.5" xml:space="preserve">
<rect x="980.5" y="490.5" fill="#F2F2F2" width="490" height="490"/>
<path d="M1238.8,622.7c-110.4,50.4-99.5,126.7-99.5,126.7c6.8,61.3,57.2,69.5,57.2,69.5l82.1-196.2"/>
<polyline points="1312.1,622.5 1283.8,622.5 1186.2,859.5 1195.9,859.5 1291,626.1 1312.3,625.8 "/>
<rect x="490.5" y="490.5" fill="none" stroke="#FFFFFF" stroke-miterlimit="10" width="490" height="490"/>
<path d="M748.8,554.7c-110.4,50.4-99.5,126.7-99.5,126.7c6.8,61.3,57.2,69.5,57.2,69.5l82.1-196.2"/>
<polyline points="822.1,554.5 793.8,554.5 696.2,791.5 705.9,791.5 801,558.1 822.3,557.8 "/>
<text transform="matrix(1 0 0 1 578.2758 910.6129)" font-family="'Avenir-Book'" font-size="70">SIROCCO</text>
<rect x="0.5" y="489.5" stroke="#FFFFFF" stroke-miterlimit="10" width="490" height="490"/>
<path fill="#FFFFFF" d="M258.8,553.7c-110.4,50.4-99.5,126.7-99.5,126.7c6.8,61.3,57.2,69.5,57.2,69.5l82.1-196.2"/>
<polyline fill="#FFFFFF" points="332.1,553.5 303.8,553.5 206.2,790.5 215.9,790.5 311,557.1 332.3,556.8 "/>
<text transform="matrix(1 0 0 1 88.2758 909.6129)" fill="#FFFFFF" font-family="'Avenir-Book'" font-size="70">SIROCCO</text>
<rect x="980.5" y="977.5" width="490" height="490"/>
<path fill="#F2F2F2" d="M1238.8,1109.7c-110.4,50.4-99.5,126.7-99.5,126.7c6.8,61.3,57.2,69.5,57.2,69.5l82.1-196.2"/>
<polyline fill="#F2F2F2" points="1312.1,1109.5 1283.8,1109.5 1186.2,1346.5 1195.9,1346.5 1291,1113.1 1312.3,1112.8 "/>
<rect x="490.5" y="977.5" fill="#F2F2F2" width="490" height="490"/>
<path d="M748.8,1041.7c-110.4,50.4-99.5,126.7-99.5,126.7c6.8,61.3,57.2,69.5,57.2,69.5l82.1-196.2"/>
<polyline points="822.1,1041.5 793.8,1041.5 696.2,1278.5 705.9,1278.5 801,1045.1 822.3,1044.8 "/>
<text transform="matrix(1 0 0 1 578.2758 1397.6129)" font-family="'Avenir-Book'" font-size="70">SIROCCO</text>
<rect x="0.5" y="976.5" width="490" height="490"/>
<text transform="matrix(1 0 0 1 88.2755 1122.6129)" fill="#FFFFFF" font-family="'Avenir-Book'" font-size="70">SIROCCO</text>
<rect x="980.5" y="0.5" fill="none" stroke="#FFFFFF" stroke-miterlimit="10" width="490" height="490"/>
<path d="M1238.8,132.7c-110.4,50.4-99.5,126.7-99.5,126.7c6.8,61.3,57.2,69.5,57.2,69.5l82.1-196.2"/>
<polyline points="1312.1,132.5 1283.8,132.5 1186.2,369.5 1195.9,369.5 1291,136.1 1312.3,135.8 "/>
<rect x="490.5" y="0.5" fill="none" stroke="#FFFFFF" stroke-miterlimit="10" width="490" height="490"/>
<path fill="#F2F2F2" d="M748.8,132.7c-110.4,50.4-99.5,126.7-99.5,126.7c6.8,61.3,57.2,69.5,57.2,69.5l82.1-196.2"/>
<polyline fill="#F2F2F2" points="822.1,132.5 793.8,132.5 696.2,369.5 705.9,369.5 801,136.1 822.3,135.8 "/>
<rect x="0.5" y="0.5" fill="none" stroke="#FFFFFF" stroke-miterlimit="10" width="490" height="490"/>
<path fill="#FFFFFF" d="M258.8,64.7c-110.4,50.4-99.5,126.7-99.5,126.7c6.8,61.3,57.2,69.5,57.2,69.5l82.1-196.2"/>
<polyline fill="#FFFFFF" points="332.1,64.5 303.8,64.5 206.2,301.5 215.9,301.5 311,68.1 332.3,67.8 "/>
<text transform="matrix(1 0 0 1 88.2758 420.6129)" fill="#FFFFFF" font-family="'Avenir-Book'" font-size="70">SIROCCO</text>
<text transform="matrix(1 0 0 1 88.2755 1207.7819)" fill="#FFFFFF" font-family="'Avenir-Book'" font-size="70">LOGO </text>
<text transform="matrix(1 0 0 1 88.2755 1298.8903)" fill="#FFFFFF" font-family="'Avenir-Book'" font-size="70">STYLE </text>
<text transform="matrix(1 0 0 1 88.2755 1381.8903)" fill="#FFFFFF" font-family="'Avenir-Book'" font-size="70">GUIDE</text>
</svg>
